<?xml version="1.0" encoding="UTF-8" standalone="no"?>
<!DOCTYPE svg PUBLIC "-//W3C//DTD SVG 1.1//EN" "http://www.w3.org/Graphics/SVG/1.1/DTD/svg11.dtd">
<svg width="100%" height="100%" viewBox="0 0 116 59" version="1.1" xmlns="http://www.w3.org/2000/svg" xmlns:xlink="http://www.w3.org/1999/xlink" xml:space="preserve" xmlns:serif="http://www.serif.com/" style="fill-rule:evenodd;clip-rule:evenodd;stroke-linejoin:round;stroke-miterlimit:2;">
    <g transform="matrix(1,0,0,1,-120.204,-74.2821)">
        <g transform="matrix(4.16667,0,0,4.16667,0,0)">
            <path d="M35.822,27.765C32.726,29.468 30.468,30.484 28.849,30.938L28.85,30.957C31.336,30.3 34.205,29.172 36.915,27.886L36.971,27.882L36.987,27.844C39.659,26.56 42.173,25.116 44.002,23.808L43.328,23.176C42.457,22.387 42.443,22.481 43.484,22.662C46.434,23.193 48.307,23.529 48.309,23.566C48.351,23.638 47.686,25.623 45.69,29.13C45.22,30.019 45.333,30.013 45.215,29.009L44.983,27.658C43.129,28.855 41.127,30.061 38.983,30.828C41.246,30.186 42.204,29.94 43.893,29.108C42.595,32.385 44.6,33.349 48.202,28.903C49.493,27.329 50.398,25.908 50.964,24.77C60.068,21.244 58.161,17.263 45.836,20.423C41.524,21.527 38.322,22.713 36.201,23.814C28.602,17.616 33.059,27.241 35.822,27.765ZM42.459,22.424M46.504,19.41C40.029,16.306 37.565,18.251 41.948,21.108C43.528,20.62 45.991,20.208 47.7,19.993C47.409,19.823 46.851,19.577 46.504,19.41Z" style="fill:rgb(0,94,255);"/>
        </g>
    </g>
</svg>
